<svg width="27" height="22" viewBox="0 0 27 22" fill="none" xmlns="http://www.w3.org/2000/svg">
<path d="M12.8535 4.36313L13.1129 4.6496H13.4993H13.5005H13.8869L14.1463 4.36313C15.9918 2.32475 17.8382 1.45463 19.4394 1.31361C21.0385 1.17277 22.4965 1.7483 23.6102 2.79991C25.8424 4.90778 26.6957 8.96475 24.1201 12.7837L24.1199 12.7838C22.9053 14.5858 19.9198 17.5514 16.2265 19.9123C14.5676 20.9723 12.4322 20.9724 10.7734 19.9123C7.07904 17.5515 4.09459 14.5859 2.87989 12.7838L2.87977 12.7837C0.30414 8.96475 1.15743 4.90778 3.38964 2.79991C4.5033 1.7483 5.96139 1.17277 7.56043 1.31361C9.16166 1.45463 11.008 2.32475 12.8535 4.36313Z" fill="#E7E6E9" stroke="black" stroke-width="1.74235"/>
<path d="M26.5311 8.75307C26.3826 10.2308 25.8516 11.7755 24.8423 13.2708C23.5454 15.1949 20.4625 18.2384 16.6956 20.6464C14.7507 21.8892 12.2491 21.8892 10.3043 20.6464C6.53729 18.2384 3.45566 15.1949 2.15751 13.2708C-3.44674 4.9613 5.67186 -4.86701 13.4993 3.77842C19.1223 10.3682 24.9534 13.9286 26.5299 8.75307H26.5311Z" fill="black"/>
</svg>
