<svg width="33" height="33" viewBox="0 0 33 33" fill="none" xmlns="http://www.w3.org/2000/svg">
<path fill-rule="evenodd" clip-rule="evenodd" d="M31.6048 4.02737C32.4485 3.18369 32.4485 1.8158 31.6048 0.972119C30.7611 0.128434 29.3932 0.128434 28.5495 0.972119L16.2885 13.2331L4.02762 0.972265C3.18393 0.128581 1.81605 0.128581 0.972366 0.972266C0.128681 1.81595 0.128681 3.18383 0.972365 4.02752L13.2332 16.2884L0.972363 28.5493C0.128678 29.393 0.128679 30.7609 0.972364 31.6045C1.81605 32.4482 3.18393 32.4482 4.02762 31.6045L16.2885 19.3437L28.5495 31.6047C29.3932 32.4484 30.7611 32.4484 31.6048 31.6047C32.4485 30.761 32.4485 29.3931 31.6048 28.5494L19.3438 16.2884L31.6048 4.02737Z" fill="#9560FD"/>
</svg>
