<svg width="56" height="45" viewBox="0 0 56 45" fill="none" xmlns="http://www.w3.org/2000/svg">
<path d="M28.0133 7.14515C11.6059 -10.9767 -7.50772 9.62459 4.23945 27.0423C6.95807 31.0754 13.4175 37.4549 21.316 42.5025C25.3927 45.1075 30.6363 45.1075 34.713 42.5025C42.609 37.4549 49.0709 31.0754 51.7895 27.0423C63.5367 9.62459 44.423 -10.9767 28.0157 7.14515H28.0133Z" fill="#E5D6FF"/>
<path d="M55.3294 17.5726C55.018 20.6701 53.9051 23.9079 51.7895 27.0423C49.0709 31.0754 42.609 37.4549 34.713 42.5025C30.6363 45.1075 25.3927 45.1075 21.316 42.5025C13.42 37.4549 6.96052 31.0754 4.23945 27.0423C-7.50772 9.62459 11.6059 -10.9767 28.0133 7.14515C39.7997 20.9581 52.0224 28.4211 55.3269 17.5726H55.3294Z" fill="white"/>
</svg>
