<svg width="26" height="29" viewBox="0 0 26 29" fill="none" xmlns="http://www.w3.org/2000/svg">
<rect x="0.0546875" y="3.92139" width="19.2171" height="14.605" rx="4.61211" fill="black"/>
<path d="M4.66699 21.2827V17.7577C4.66699 17.3332 5.01114 16.989 5.43568 16.989H8.9607C9.64552 16.989 9.98849 17.817 9.50424 18.3012L5.97922 21.8263C5.49497 22.3105 4.66699 21.9675 4.66699 21.2827Z" fill="black"/>
<path d="M20.8096 28.2009V24.6759C20.8096 24.2514 20.4654 23.9072 20.0409 23.9072H16.5159C15.831 23.9072 15.4881 24.7352 15.9723 25.2195L19.4973 28.7445C19.9816 29.2287 20.8096 28.8858 20.8096 28.2009Z" fill="black"/>
<path fill-rule="evenodd" clip-rule="evenodd" d="M6.20508 20.8325V20.0638H7.74199L6.25991 21.5458C6.22381 21.3133 6.20508 21.0751 6.20508 20.8325ZM6.20508 16.989V18.5264H9.27936L9.50449 18.3013C9.98873 17.817 9.64577 16.989 8.96095 16.989H6.20508ZM11.0415 18.5264C11.4866 17.5529 10.1896 16.2204 8.96095 16.2204H6.20508V15.4517C6.20508 12.9045 8.26999 10.8396 10.8172 10.8396H19.2727V13.9143C19.2727 16.4615 17.2078 18.5264 14.6606 18.5264H11.0415ZM9.59776 20.0638L7.29169 22.3698C7.0936 22.6019 6.90608 22.8006 6.72867 22.9689C7.49921 24.4405 9.04094 25.4446 10.8172 25.4446H20.8101C23.3573 25.4446 25.4222 23.3797 25.4222 20.8325V15.4517C25.4222 12.9045 23.3573 10.8396 20.8101 10.8396L20.8101 13.9143C20.8101 16.886 18.1197 20.0638 14.6606 20.0638H9.59776Z" fill="black"/>
</svg>
