<svg width="320" height="39" viewBox="0 0 320 39" fill="none" xmlns="http://www.w3.org/2000/svg">
<path d="M24.0262 6.1422C9.64165 -9.67591 -7.11566 8.30644 3.1833 23.5099C5.56676 27.0303 11.2299 32.5988 18.1546 37.0047C21.7287 39.2786 26.3259 39.2786 29.9 37.0047C36.8226 32.5988 42.4879 27.0303 44.8713 23.5099C55.1703 8.30644 38.413 -9.67591 24.0284 6.1422H24.0262Z" fill="url(#paint0_linear_59_666)"/>
<path d="M47.9748 15.2441C47.7018 17.9478 46.7261 20.7739 44.8713 23.5099C42.4879 27.0303 36.8226 32.5988 29.9 37.0047C26.3259 39.2786 21.7287 39.2786 18.1546 37.0047C11.2321 32.5988 5.56891 27.0303 3.1833 23.5099C-7.11566 8.30644 9.64165 -9.67591 24.0262 6.1422C34.3596 18.1992 45.0755 24.7134 47.9726 15.2441H47.9748Z" fill="url(#paint1_linear_59_666)"/>
<path d="M47.9748 15.2441C45.0776 24.7134 34.3617 18.1992 24.0284 6.1422C9.64163 -9.67591 -7.11568 8.30644 3.18328 23.5099C-1.27846 11.4959 10.684 13.1615 20.955 21.7948C32.234 31.2771 44.4952 28.1715 47.9726 15.2441H47.9748Z" fill="url(#paint2_linear_59_666)"/>
<path opacity="0.35" d="M47.9748 15.2441C45.0776 24.7134 34.3617 18.1992 24.0284 6.1422C9.64163 -9.67591 -7.11568 8.30644 3.18328 23.5099C-5.36409 6.75472 11.3094 -6.4865 22.7539 6.91806C33.8072 19.8648 45.3269 26.7638 47.9748 15.2441Z" fill="url(#paint3_linear_59_666)"/>
<path d="M79.3735 11.2178V13.1144H71.4797V19.3679H78.1689V21.1875H71.4797V29.2863H69.1475V11.2178H79.3735Z" fill="#636975"/>
<path d="M87.9038 15.0365C89.2707 15.0365 90.424 15.3783 91.3637 16.0617C92.3205 16.7451 92.9869 17.6593 93.3628 18.804V15.2159H95.695V29.2863H93.3628V25.6983C92.9869 26.843 92.3205 27.7571 91.3637 28.4406C90.424 29.124 89.2707 29.4657 87.9038 29.4657C86.6565 29.4657 85.5459 29.1753 84.572 28.5944C83.5981 28.0134 82.8292 27.1847 82.2654 26.1083C81.7186 25.0148 81.4452 23.7334 81.4452 22.264C81.4452 20.7946 81.7186 19.5131 82.2654 18.4196C82.8292 17.3261 83.5981 16.4889 84.572 15.9079C85.5459 15.327 86.6565 15.0365 87.9038 15.0365ZM88.5701 17.1125C87.1349 17.1125 85.9816 17.5738 85.1102 18.4965C84.2559 19.402 83.8288 20.6579 83.8288 22.264C83.8288 23.87 84.2559 25.1344 85.1102 26.0571C85.9816 26.9626 87.1349 27.4154 88.5701 27.4154C89.4928 27.4154 90.3129 27.2018 91.0305 26.7747C91.7652 26.3475 92.3376 25.7495 92.7477 24.9806C93.1578 24.1947 93.3628 23.2891 93.3628 22.264C93.3628 21.2388 93.1578 20.3332 92.7477 19.5473C92.3376 18.7613 91.7652 18.1633 91.0305 17.7532C90.3129 17.3261 89.4928 17.1125 88.5701 17.1125Z" fill="#636975"/>
<path d="M105.635 15.0365C107.429 15.0365 108.915 15.5149 110.094 16.4718C111.273 17.4286 111.999 18.71 112.273 20.3161H109.812C109.641 19.3081 109.172 18.5221 108.403 17.9583C107.651 17.3773 106.711 17.0869 105.583 17.0869C104.763 17.0869 104.012 17.2748 103.328 17.6507C102.662 18.0266 102.124 18.6075 101.713 19.3935C101.303 20.1624 101.098 21.1192 101.098 22.264C101.098 23.4087 101.303 24.3741 101.713 25.16C102.124 25.9289 102.662 26.5013 103.328 26.8772C104.012 27.2531 104.763 27.441 105.583 27.441C106.711 27.441 107.651 27.1506 108.403 26.5696C109.172 25.9887 109.641 25.1942 109.812 24.1861H112.273C111.999 25.8093 111.273 27.0993 110.094 28.0561C108.915 28.9959 107.429 29.4657 105.635 29.4657C104.285 29.4657 103.089 29.1753 102.047 28.5944C101.004 28.0134 100.184 27.1847 99.5863 26.1083C99.0053 25.0148 98.7149 23.7334 98.7149 22.264C98.7149 20.7946 99.0053 19.5131 99.5863 18.4196C100.184 17.3261 101.004 16.4889 102.047 15.9079C103.089 15.327 104.285 15.0365 105.635 15.0365Z" fill="#636975"/>
<path d="M128.268 21.4695C128.268 21.9649 128.234 22.3921 128.165 22.7509H116.914C116.965 24.357 117.418 25.5616 118.272 26.3646C119.144 27.1677 120.203 27.5692 121.45 27.5692C122.578 27.5692 123.518 27.2873 124.27 26.7234C125.038 26.1425 125.508 25.3736 125.679 24.4168H128.165C127.994 25.3907 127.61 26.2621 127.012 27.031C126.431 27.7998 125.671 28.3979 124.731 28.825C123.791 29.2522 122.732 29.4657 121.553 29.4657C120.203 29.4657 119.007 29.1753 117.965 28.5944C116.923 28.0134 116.102 27.1847 115.504 26.1083C114.923 25.0148 114.633 23.7334 114.633 22.264C114.633 20.7946 114.923 19.5131 115.504 18.4196C116.102 17.3261 116.923 16.4889 117.965 15.9079C119.007 15.327 120.203 15.0365 121.553 15.0365C122.92 15.0365 124.107 15.327 125.115 15.9079C126.14 16.4889 126.918 17.2663 127.448 18.2402C127.994 19.2141 128.268 20.2905 128.268 21.4695ZM125.91 21.6232C125.961 20.581 125.79 19.7096 125.397 19.0091C125.004 18.3085 124.466 17.7874 123.783 17.4457C123.099 17.104 122.356 16.9331 121.553 16.9331C120.271 16.9331 119.195 17.3346 118.324 18.1377C117.452 18.9236 116.982 20.0855 116.914 21.6232H125.91Z" fill="#636975"/>
<path d="M129.78 13.3963V11.2178H134.957V29.2863H132.497V13.3963H129.78Z" fill="#636975"/>
<path d="M138.625 15.4722C138.625 14.5838 138.864 13.7722 139.343 13.0375C139.821 12.3028 140.53 11.7218 141.47 11.2947C142.41 10.8675 143.529 10.654 144.828 10.654C146.126 10.654 147.237 10.8675 148.159 11.2947C149.099 11.7218 149.808 12.3028 150.287 13.0375C150.765 13.7722 151.004 14.5838 151.004 15.4722C151.004 16.4803 150.731 17.3517 150.184 18.0864C149.637 18.8211 148.809 19.3422 147.698 19.6498C148.894 19.9744 149.825 20.5383 150.492 21.3413C151.158 22.1444 151.491 23.1353 151.491 24.3143C151.491 26.0229 150.885 27.3642 149.671 28.3381C148.458 29.312 146.844 29.7989 144.828 29.7989C142.811 29.7989 141.197 29.312 139.984 28.3381C138.77 27.3642 138.164 26.0229 138.164 24.3143C138.164 23.1353 138.489 22.1444 139.138 21.3413C139.804 20.5383 140.735 19.9744 141.931 19.6498C140.821 19.3422 139.992 18.8211 139.445 18.0864C138.899 17.3517 138.625 16.4803 138.625 15.4722ZM140.932 15.8054C140.932 16.8306 141.282 17.6251 141.983 18.1889C142.683 18.7357 143.631 19.0091 144.828 19.0091C146.024 19.0091 146.963 18.7357 147.647 18.1889C148.347 17.6251 148.698 16.8306 148.698 15.8054C148.698 14.7802 148.347 13.9943 147.647 13.4475C146.946 12.8837 146.006 12.6018 144.828 12.6018C143.649 12.6018 142.7 12.8837 141.983 13.4475C141.282 13.9943 140.932 14.7802 140.932 15.8054ZM140.445 24.1861C140.445 25.348 140.838 26.2536 141.624 26.9028C142.41 27.535 143.478 27.8511 144.828 27.8511C146.16 27.8511 147.22 27.5265 148.006 26.8772C148.791 26.2279 149.184 25.3309 149.184 24.1861C149.184 23.0243 148.774 22.1444 147.954 21.5463C147.134 20.9483 146.092 20.6493 144.828 20.6493C143.546 20.6493 142.495 20.9483 141.675 21.5463C140.855 22.1444 140.445 23.0243 140.445 24.1861Z" fill="#636975"/>
<path d="M166.74 20.9825H161.333V26.4415H159.052V20.9825H153.67V18.8553H159.052V13.3706H161.333V18.8553H166.74V20.9825Z" fill="#636975"/>
<path d="M177.227 15.0365C178.474 15.0365 179.585 15.327 180.559 15.9079C181.533 16.4889 182.293 17.3261 182.84 18.4196C183.404 19.5131 183.686 20.7946 183.686 22.264C183.686 23.7334 183.404 25.0148 182.84 26.1083C182.293 27.1847 181.533 28.0134 180.559 28.5944C179.585 29.1753 178.474 29.4657 177.227 29.4657C175.86 29.4657 174.698 29.124 173.742 28.4406C172.802 27.74 172.153 26.8259 171.794 25.6983V29.2863H169.462V10.3208H171.794V18.804C172.153 17.6763 172.802 16.7708 173.742 16.0873C174.698 15.3868 175.86 15.0365 177.227 15.0365ZM176.561 17.1125C175.655 17.1125 174.835 17.3261 174.1 17.7532C173.366 18.1633 172.793 18.7613 172.383 19.5473C171.973 20.3332 171.768 21.2388 171.768 22.264C171.768 23.2891 171.973 24.1947 172.383 24.9806C172.793 25.7495 173.366 26.3475 174.1 26.7747C174.835 27.2018 175.655 27.4154 176.561 27.4154C178.013 27.4154 179.166 26.9626 180.021 26.0571C180.892 25.1344 181.328 23.87 181.328 22.264C181.328 20.6579 180.892 19.402 180.021 18.4965C179.166 17.5738 178.013 17.1125 176.561 17.1125Z" fill="#636975"/>
<path d="M193.113 15.0365C194.463 15.0365 195.667 15.327 196.727 15.9079C197.803 16.4889 198.64 17.3261 199.238 18.4196C199.853 19.5131 200.161 20.7946 200.161 22.264C200.161 23.7334 199.853 25.0148 199.238 26.1083C198.64 27.1847 197.803 28.0134 196.727 28.5944C195.667 29.1753 194.463 29.4657 193.113 29.4657C191.763 29.4657 190.55 29.1753 189.473 28.5944C188.414 28.0134 187.577 27.1847 186.962 26.1083C186.347 25.0148 186.039 23.7334 186.039 22.264C186.039 20.7946 186.347 19.5131 186.962 18.4196C187.577 17.3261 188.414 16.4889 189.473 15.9079C190.55 15.327 191.763 15.0365 193.113 15.0365ZM193.113 17.0869C192.276 17.0869 191.498 17.2748 190.781 17.6507C190.08 18.0266 189.508 18.6075 189.063 19.3935C188.636 20.1624 188.423 21.1192 188.423 22.264C188.423 23.3916 188.636 24.3485 189.063 25.1344C189.508 25.9033 190.08 26.4757 190.781 26.8516C191.498 27.2275 192.276 27.4154 193.113 27.4154C193.95 27.4154 194.719 27.2275 195.419 26.8516C196.137 26.4757 196.709 25.9033 197.137 25.1344C197.581 24.3485 197.803 23.3916 197.803 22.264C197.803 21.1192 197.581 20.1624 197.137 19.3935C196.709 18.6075 196.137 18.0266 195.419 17.6507C194.719 17.2748 193.95 17.0869 193.113 17.0869Z" fill="#636975"/>
<path d="M209.582 15.0365C210.931 15.0365 212.136 15.327 213.195 15.9079C214.272 16.4889 215.109 17.3261 215.707 18.4196C216.322 19.5131 216.63 20.7946 216.63 22.264C216.63 23.7334 216.322 25.0148 215.707 26.1083C215.109 27.1847 214.272 28.0134 213.195 28.5944C212.136 29.1753 210.931 29.4657 209.582 29.4657C208.232 29.4657 207.019 29.1753 205.942 28.5944C204.883 28.0134 204.046 27.1847 203.431 26.1083C202.815 25.0148 202.508 23.7334 202.508 22.264C202.508 20.7946 202.815 19.5131 203.431 18.4196C204.046 17.3261 204.883 16.4889 205.942 15.9079C207.019 15.327 208.232 15.0365 209.582 15.0365ZM209.582 17.0869C208.744 17.0869 207.967 17.2748 207.249 17.6507C206.549 18.0266 205.976 18.6075 205.532 19.3935C205.105 20.1624 204.891 21.1192 204.891 22.264C204.891 23.3916 205.105 24.3485 205.532 25.1344C205.976 25.9033 206.549 26.4757 207.249 26.8516C207.967 27.2275 208.744 27.4154 209.582 27.4154C210.419 27.4154 211.188 27.2275 211.888 26.8516C212.606 26.4757 213.178 25.9033 213.605 25.1344C214.05 24.3485 214.272 23.3916 214.272 22.264C214.272 21.1192 214.05 20.1624 213.605 19.3935C213.178 18.6075 212.606 18.0266 211.888 17.6507C211.188 17.2748 210.419 17.0869 209.582 17.0869Z" fill="#636975"/>
<path d="M227.383 29.2863L222.001 22.9559V29.2863H219.669V10.3208H222.001V21.3413L227.306 15.2159H230.151L223.846 22.2127L230.305 29.2863H227.383Z" fill="#636975"/>
<path d="M253.914 20.2393C253.914 22.0675 253.547 23.665 252.812 25.0319C252.077 26.3817 250.992 27.4325 249.557 28.1843C248.139 28.919 246.43 29.2863 244.431 29.2863H238.69V11.2178H244.431C246.43 11.2178 248.139 11.5851 249.557 12.3198C250.992 13.0375 252.077 14.0797 252.812 15.4466C253.547 16.7964 253.914 18.394 253.914 20.2393ZM244.252 27.1847C246.61 27.1847 248.412 26.5782 249.659 25.3651C250.907 24.152 251.53 22.4434 251.53 20.2393C251.53 18.0351 250.907 16.3265 249.659 15.1134C248.429 13.8832 246.627 13.2681 244.252 13.2681H241.022V27.1847H244.252Z" fill="#636975"/>
<path d="M262.828 15.0365C264.195 15.0365 265.348 15.3783 266.288 16.0617C267.244 16.7451 267.911 17.6593 268.287 18.804V15.2159H270.619V29.2863H268.287V25.6983C267.911 26.843 267.244 27.7571 266.288 28.4406C265.348 29.124 264.195 29.4657 262.828 29.4657C261.58 29.4657 260.47 29.1753 259.496 28.5944C258.522 28.0134 257.753 27.1847 257.189 26.1083C256.642 25.0148 256.369 23.7334 256.369 22.264C256.369 20.7946 256.642 19.5131 257.189 18.4196C257.753 17.3261 258.522 16.4889 259.496 15.9079C260.47 15.327 261.58 15.0365 262.828 15.0365ZM263.494 17.1125C262.059 17.1125 260.905 17.5738 260.034 18.4965C259.18 19.402 258.753 20.6579 258.753 22.264C258.753 23.87 259.18 25.1344 260.034 26.0571C260.905 26.9626 262.059 27.4154 263.494 27.4154C264.417 27.4154 265.237 27.2018 265.954 26.7747C266.689 26.3475 267.262 25.7495 267.672 24.9806C268.082 24.1947 268.287 23.2891 268.287 22.264C268.287 21.2388 268.082 20.3332 267.672 19.5473C267.262 18.7613 266.689 18.1633 265.954 17.7532C265.237 17.3261 264.417 17.1125 263.494 17.1125Z" fill="#636975"/>
<path d="M281.046 27.236V29.2863H279.303C277.868 29.2863 276.791 28.9446 276.074 28.2612C275.373 27.5777 275.023 26.433 275.023 24.8269V17.2406H272.921V15.2159H275.023V11.7047H277.381V15.2159H281.02V17.2406H277.381V24.8781C277.381 25.7837 277.543 26.4073 277.868 26.7491C278.209 27.0737 278.79 27.236 279.61 27.236H281.046Z" fill="#636975"/>
<path d="M283.482 11.0897C283.482 10.6625 283.627 10.3208 283.917 10.0645C284.208 9.79111 284.592 9.65442 285.071 9.65442C285.549 9.65442 285.933 9.79111 286.224 10.0645C286.514 10.3208 286.66 10.6625 286.66 11.0897C286.66 11.5168 286.514 11.8671 286.224 12.1404C285.933 12.3967 285.549 12.5249 285.071 12.5249C284.592 12.5249 284.208 12.3967 283.917 12.1404C283.627 11.8671 283.482 11.5168 283.482 11.0897ZM286.224 15.2159V29.2863H283.892V15.2159H286.224Z" fill="#636975"/>
<path d="M297.38 14.9853C299.021 14.9853 300.345 15.5149 301.353 16.5743C302.361 17.6165 302.865 19.1287 302.865 21.1106V29.2863H300.533V21.3157C300.533 19.9146 300.174 18.8382 299.456 18.0864C298.739 17.3346 297.765 16.9587 296.535 16.9587C295.253 16.9587 294.228 17.3773 293.459 18.2146C292.69 19.0347 292.306 20.2393 292.306 21.8283V29.2863H289.974V15.2159H292.306V18.5477C292.665 17.403 293.297 16.523 294.202 15.9079C295.125 15.2928 296.184 14.9853 297.38 14.9853Z" fill="#636975"/>
<path d="M312.209 15.0365C313.576 15.0365 314.729 15.3783 315.669 16.0617C316.626 16.7451 317.292 17.6593 317.668 18.804V15.2159H320V29.517C320 30.8155 319.727 31.9689 319.18 32.9769C318.633 33.985 317.864 34.771 316.873 35.3348C315.882 35.8987 314.729 36.1806 313.413 36.1806C311.517 36.1806 309.971 35.7192 308.774 34.7966C307.578 33.891 306.818 32.6608 306.493 31.106H308.8C309.074 32.0457 309.586 32.7804 310.338 33.3101C311.107 33.8569 312.089 34.1302 313.285 34.1302C314.55 34.1302 315.592 33.7202 316.412 32.9C317.249 32.097 317.668 30.9693 317.668 29.517V25.6983C317.292 26.843 316.626 27.7571 315.669 28.4406C314.729 29.124 313.576 29.4657 312.209 29.4657C310.962 29.4657 309.851 29.1753 308.877 28.5944C307.903 28.0134 307.134 27.1847 306.57 26.1083C306.024 25.0148 305.75 23.7334 305.75 22.264C305.75 20.7946 306.024 19.5131 306.57 18.4196C307.134 17.3261 307.903 16.4889 308.877 15.9079C309.851 15.327 310.962 15.0365 312.209 15.0365ZM312.875 17.1125C311.44 17.1125 310.287 17.5738 309.415 18.4965C308.561 19.402 308.134 20.6579 308.134 22.264C308.134 23.87 308.561 25.1344 309.415 26.0571C310.287 26.9626 311.44 27.4154 312.875 27.4154C313.798 27.4154 314.618 27.2018 315.336 26.7747C316.07 26.3475 316.643 25.7495 317.053 24.9806C317.463 24.1947 317.668 23.2891 317.668 22.264C317.668 21.2388 317.463 20.3332 317.053 19.5473C316.643 18.7613 316.07 18.1633 315.336 17.7532C314.618 17.3261 313.798 17.1125 312.875 17.1125Z" fill="#636975"/>
<defs>
<linearGradient id="paint0_linear_59_666" x1="33.7492" y1="-1.37785" x2="22.3047" y2="16.6066" gradientUnits="userSpaceOnUse">
<stop stop-color="#E444CC"/>
<stop offset="0.43" stop-color="#AE23C1"/>
<stop offset="1" stop-color="#570BAB"/>
</linearGradient>
<linearGradient id="paint1_linear_59_666" x1="0.0003379" y1="19.3555" x2="47.9748" y2="19.3555" gradientUnits="userSpaceOnUse">
<stop stop-color="#FF7A95"/>
<stop offset="0.43" stop-color="#FF375D"/>
<stop offset="1" stop-color="#BD0025"/>
</linearGradient>
<linearGradient id="paint2_linear_59_666" x1="0.00031636" y1="13.6558" x2="47.9748" y2="13.6558" gradientUnits="userSpaceOnUse">
<stop stop-color="#FF9EB2"/>
<stop offset="0.45" stop-color="#FF4569"/>
<stop offset="1" stop-color="#DF1640"/>
</linearGradient>
<linearGradient id="paint3_linear_59_666" x1="0.00031636" y1="11.7538" x2="47.9748" y2="11.7538" gradientUnits="userSpaceOnUse">
<stop stop-color="white"/>
<stop offset="1" stop-color="#DC00C6"/>
</linearGradient>
</defs>
</svg>
